# xmcd CD database file
#
# Track frame offsets:
#	150
#	13917
#	28845
#	43250
#	57912
#	73547
#	88300
#	101717
#	117782
#	131232
#	145057
#	158490
#	172705
#	188105
#
# Disc length: 2705 seconds
#
# Revision: 0
# Processed by: cddbd v1.5.2PL0 Copyright (c) Steve Scherf et al.
# Submitted via: CDex 1.70beta3
#
DISCID=c10a8f0e
DTITLE=Billie Holiday - BILLIE HOLIDAY
DYEAR=1900
DGENRE=Jazz
TTITLE0=ALL OF ME
TTITLE1=LOVER MAN
TTITLE2=SOLITUDE
TTITLE3=STRANGE FRUIT
TTITLE4=YESTERDAYS
TTITLE5=I'LL LOOK AROUND
TTITLE6=SUMMER TIME
TTITLE7=I'LL BE SEEING YOU
TTITLE8=WHAT A LITTLE MOONLIGHT CAN DO
TTITLE9=I WISH ON THE MOON
TTITLE10=I MUST HAVE THAT MAN !
TTITLE11=GOOD MORNING HEARTACHE
TTITLE12=DON'T EXPLAIN
TTITLE13=SHE'S FUNNY THAT AWAY
EXTD=
EXTT0=
EXTT1=
EXTT2=
EXTT3=
EXTT4=
EXTT5=
EXTT6=
EXTT7=
EXTT8=
EXTT9=
EXTT10=
EXTT11=
EXTT12=
EXTT13=
PLAYORDER=
